<svg xmlns="http://www.w3.org/2000/svg" width="326" height="128" viewBox="0 0 326 128" fill="none"><path d="M127.377 127.141C125.83 127.141 124.209 127.109 122.73 127.054C120.39 126.967 118.251 126.82 116.71 126.642C115.852 126.543 115.167 126.433 114.676 126.316C114.039 126.164 113.583 125.981 113.426 125.577C113.057 124.634 114.416 123.824 116.298 122.702C116.7 122.463 117.217 122.154 117.623 121.886C116.966 121.907 116.53 121.905 116.217 121.878C115.966 121.857 115.378 121.806 115.207 121.31C115.038 120.817 115.47 120.438 115.613 120.314C115.81 120.141 116.08 119.945 116.422 119.698C117.095 119.211 118.016 118.544 118.908 117.652C119.581 116.978 120.43 116.12 121.021 115.446C121.247 115.189 121.411 114.986 121.53 114.829C119.996 115.242 118.495 115.497 117.804 114.674C117.152 113.896 117.709 112.714 117.892 112.326C118.975 110.03 120.352 110.004 121.947 109.973C122.294 109.966 122.651 109.959 123.032 109.93C122.939 109.76 122.889 109.556 122.946 109.318C123.092 108.712 123.82 108.42 124.869 108.169C126.159 107.859 126.924 107.52 127.339 107.277C127.16 107.27 126.925 107.273 126.618 107.298C126.064 107.342 125.651 107.352 125.357 107.326C124.827 107.279 124.52 107.073 124.445 106.711C124.313 106.074 125.067 105.722 125.517 105.513C126.105 105.238 126.877 104.96 127.421 104.775C127.965 104.59 128.143 104.423 128.2 104.34C128.247 104.272 128.251 104.205 128.252 104.029C128.255 103.495 128.395 102.927 129.411 102.763C130.232 102.63 130.566 102.765 130.864 103.043C130.865 103.044 130.867 103.046 130.868 103.047C130.927 103.052 131.098 103.05 131.507 102.959C131.831 102.887 131.831 102.887 131.843 102.31C131.851 101.973 131.86 101.559 132.004 101.111C131.824 101.049 131.351 101.077 131.135 101.089C130.588 101.121 130.023 101.153 129.682 100.766C129.554 100.619 129.417 100.363 129.492 99.9702C129.582 99.4963 129.425 99.2932 129.374 99.2265C129.197 98.9983 128.75 98.7109 127.619 98.6356C126.91 98.5888 126.166 99.5058 125.623 100.176C125.403 100.447 125.214 100.681 125.028 100.86C124.902 100.981 124.521 101.348 124.037 101.202C123.483 101.035 123.347 100.387 123.282 99.7113C123.26 99.4769 123.239 99.288 123.22 99.1361C122.783 99.5972 122.132 100.27 121.15 100.87C120.625 101.191 120.182 101.372 119.793 101.423C119.143 101.507 118.8 101.203 118.653 101.014C117.956 100.116 118.786 98.3327 119.955 97.195C120.024 97.1278 120.091 97.0634 120.155 97.0004C120.999 96.1762 121.508 95.6791 122.234 95.521C122.965 95.3619 123.753 95.5991 125.041 96.1241C125.101 96.1483 125.166 96.1753 125.235 96.2027C125.182 96.0953 125.129 95.9816 125.078 95.8614C124.957 95.5764 124.636 94.8199 125.135 94.3729C125.753 93.8204 126.738 94.3744 128.895 95.5877C129.48 95.9168 129.819 96.0271 129.994 96.0626C129.953 95.8609 129.82 95.4812 129.469 94.8909C129.198 94.435 128.964 94.2309 128.864 94.1433C128.537 93.8579 128.568 93.5762 128.651 93.3901C128.733 93.2064 128.936 93.018 129.258 93.0365C129.295 93.0388 129.332 93.0436 129.379 93.0492C129.648 93.0829 130.464 93.1842 132.292 92.8689C132.838 92.7747 133.295 92.6989 133.699 92.6317C133.509 92.5545 133.371 92.4968 133.264 92.448C133.104 92.3746 132.678 92.1791 132.736 91.7113C132.752 91.5788 132.839 91.2597 133.287 91.1608C133.367 91.1432 133.46 91.1305 133.577 91.1139C134.064 91.0457 134.971 90.9193 135.902 90.3062C136.463 89.936 136.681 89.6865 136.764 89.5606C136.593 89.5033 136.201 89.438 135.508 89.5393C134.972 89.6179 134.673 89.7301 134.432 89.82C134.118 89.9374 133.794 90.0591 133.302 89.9459C132.925 89.8593 132.464 89.6491 131.539 89.1411C130.582 88.6156 129.409 89.1681 128.373 89.6557C127.474 90.079 126.698 90.4449 126.012 90.1486C125.653 89.9938 125.396 89.6851 125.249 89.2316C125.217 89.1321 125.188 89.055 125.162 88.9953C125.134 89.0185 125.107 89.0412 125.082 89.0616C124.692 89.3864 123.879 90.0624 122.844 89.4067C122.451 89.1582 122.328 88.8291 122.295 88.5972C122.186 87.8534 122.837 87.1063 123.411 86.4478C123.459 86.392 123.514 86.3295 123.569 86.2646C122.798 86.3711 122.721 86.5974 122.181 88.181C121.789 89.3291 121.197 91.0637 119.955 93.66C119.148 95.3463 118.135 96.6009 116.943 97.3886C116.771 97.5023 116.596 97.6055 116.418 97.6987C114.81 104.035 112.698 112.82 111.956 117.083C111.41 120.224 110.962 122.216 109.354 123.384C107.844 124.48 105.334 124.801 101.175 125.333C96.9075 125.878 93.9571 125.901 91.8897 125.404C89.9018 124.926 88.597 123.965 87.6592 122.288C85.96 119.25 80.9602 109.379 78.6707 102.978C78.4028 102.228 78.2394 101.661 78.1708 101.242C78.0624 100.579 78.2106 100.158 78.6111 99.9896C79.1868 99.7487 79.7643 100.26 80.5104 101.163C81.1169 101.897 81.8886 102.985 82.7422 104.309C84.6056 107.2 86.6422 110.862 88.3295 114.357C89.7962 117.394 91.4655 119.851 93.157 121.463C94.5835 122.822 95.9488 123.513 97.0012 123.408C98.0674 123.301 98.5285 122.349 98.7273 121.569C99.5094 118.506 98.8055 113.773 97.914 107.78C97.5599 105.4 97.1589 102.703 96.8194 99.8656C96.5652 97.7385 96.3995 96.0588 96.293 94.6854C96.222 94.5618 96.1529 94.4392 96.0866 94.3175C95.6084 93.446 95.2756 92.6842 95.0971 92.0532C94.858 91.2086 94.9002 90.6012 95.2264 90.1954C95.3826 90.0009 95.6529 89.7959 96.1046 89.7694C96.1055 89.5596 96.1065 89.3556 96.1079 89.1539C96.1164 87.906 96.1235 86.828 95.9659 85.127C95.8357 83.7256 95.8887 82.8697 96.5444 82.641C97.3355 82.365 97.9675 83.3317 99.1146 85.0862C99.6411 85.8915 100.185 86.7243 100.702 87.3445C101.547 88.3581 101.891 89.6193 102.195 90.7323C102.7 92.5825 102.949 93.0218 103.864 92.8258C104.097 92.7756 104.323 92.7287 104.541 92.6857C104.479 92.5427 104.418 92.4025 104.359 92.2662C104.104 91.6844 103.884 91.1821 103.788 90.7351C103.748 90.5444 103.639 90.0383 103.992 89.7012C104.349 89.3594 104.822 89.4834 105.321 89.6145C105.393 89.6335 105.469 89.6534 105.547 89.6728C105.431 89.5648 105.339 89.4389 105.28 89.2893C105.206 89.1028 105.129 88.724 105.448 88.2785C106.119 87.3383 107.39 87.4818 108.23 87.5765C108.337 87.5888 108.462 87.6025 108.577 87.6124C108.444 87.3497 108.316 87.1641 108.218 87.0221C108.055 86.7868 107.853 86.4942 107.991 86.1287C108.117 85.7959 108.444 85.6851 108.568 85.6435C108.719 85.5923 108.921 85.5426 109.199 85.474C109.466 85.4082 109.798 85.3263 110.224 85.2108C110.798 85.0541 111.117 84.9149 111.291 84.8178C111.105 84.7274 110.781 84.6109 110.272 84.5172C109.731 84.4178 109.273 84.5764 108.939 84.6919C108.624 84.8008 108.193 84.9504 107.866 84.6109C107.481 84.2109 107.697 83.6565 108.171 82.4422C108.287 82.143 108.353 81.9271 108.391 81.7742C107.901 82.0147 107.089 82.5956 106.605 82.9421L106.463 83.0439C105.895 83.4491 105.553 84.0106 105.303 84.4206C105.038 84.8557 104.764 85.305 104.245 85.2586C103.707 85.2103 103.454 84.663 103.2 84.0064C102.766 82.8829 103.049 81.9361 103.236 81.3097C103.256 81.2425 103.279 81.1649 103.299 81.0924C103.218 81.0934 103.108 81.0991 102.962 81.1147C102.281 81.1871 101.712 81.3964 101.296 81.5488C100.79 81.7344 100.312 81.91 99.9635 81.5228C99.5795 81.0962 99.8281 80.5385 100.427 79.3185C100.878 78.4006 100.818 77.9536 100.718 77.8807C100.53 77.7444 99.7594 77.8978 98.9565 78.678C98.288 79.3275 97.8752 79.5353 97.4837 79.4203C97.246 79.3502 97.0704 79.1618 97.0135 78.9156C96.9553 78.6628 96.978 78.2491 97.6792 77.2814C98.0286 76.799 98.6639 76.024 99.7069 75.071C100.289 74.5388 100.435 74.2766 100.47 74.1866C100.422 74.1397 100.328 74.0711 100.261 74.0228C99.989 73.8244 99.6169 73.5532 99.4905 73.0532C99.3598 72.5353 99.5374 71.9582 100.049 71.2362C100.831 70.1336 101.098 69.5683 101.187 69.3004C101.075 69.3198 100.91 69.36 100.676 69.44C100.278 69.5764 99.981 69.7501 99.7641 69.877C99.4687 70.0498 99.1013 70.2643 98.7302 69.9996C98.3742 69.7459 98.4348 69.3023 98.4636 69.0892C98.4949 68.861 98.5574 68.5476 98.6521 68.0737C98.6989 67.8389 98.7534 67.5667 98.8145 67.2528C99.1965 65.2848 100.237 64.9927 100.859 64.818C100.962 64.7891 101.115 64.746 101.165 64.7143C101.177 64.6774 101.219 64.4975 101.092 63.9488C100.678 62.1654 101.809 61.5182 102.558 61.0903C103.304 60.6637 103.63 60.4412 103.5 59.661C103.183 59.9124 102.682 60.4876 102.386 60.8275C101.598 61.7322 100.961 62.4627 100.3 62.4632C100.239 62.4632 100.178 62.457 100.116 62.4443C99.9246 62.4045 99.5814 62.261 99.4091 61.7502C99.1193 61.959 98.6308 62.5105 98.3178 62.8632C97.5978 63.6756 96.8531 64.5155 96.0923 64.7186C95.6278 64.8426 94.9485 64.9577 94.4154 64.5311C93.7649 64.0108 93.675 62.9636 93.7389 61.3303C93.7417 61.2583 93.7431 61.1935 93.7431 61.1343C93.5097 61.4415 93.2011 61.9235 92.8678 62.5711C92.7447 62.8102 92.4175 63.4451 91.8234 63.3693C91.19 63.2884 91.0309 62.5792 90.8103 61.5982C90.6948 61.0836 90.5636 60.4999 90.379 60.0738C90.2961 59.8821 90.2038 59.7931 89.9074 59.8073C89.6338 59.8201 89.2825 59.9242 88.918 60.0492C88.5714 61.0742 87.6407 61.3289 87.1266 61.4633C87.271 61.5197 87.4527 61.5679 87.5858 61.6035C88.0516 61.7275 88.632 61.8818 88.8792 62.4031C89.0373 62.7364 89.0141 63.134 88.8101 63.5852C88.696 63.8375 88.5875 64.0548 88.5004 64.2295C88.4711 64.2887 88.4389 64.3526 88.4091 64.4142C88.5501 64.4288 88.7362 64.4426 88.9658 64.4549C90.7056 64.5491 91.3301 65.788 92.1207 67.357C92.3181 67.749 92.5222 68.1538 92.766 68.594C93.6181 70.1341 93.6466 71.6367 92.8351 72.2475C92.6202 72.4094 91.8366 72.8563 90.7885 71.8081C90.593 71.6126 90.4685 71.5629 90.4277 71.5615C90.3122 71.5619 90.0305 71.8498 89.844 72.0406C89.6504 72.2385 89.4255 72.4681 89.1542 72.6726C89.1457 73.6299 88.7788 74.2273 88.4924 74.6936C88.1842 75.195 88.0568 75.4024 88.2916 75.9312C88.3504 76.0632 88.3968 76.1087 88.4095 76.1196C88.5085 76.1295 88.7982 75.9937 88.9724 75.9113C89.4288 75.6959 89.9969 75.4274 90.5968 75.6589C91.011 75.819 91.3277 76.1759 91.5649 76.7502C91.8726 77.4954 92.3849 78.0796 92.8796 78.6444C93.7038 79.5846 94.6379 80.6507 93.9221 82.196C93.3862 83.3526 92.4289 83.4937 91.7301 83.4501C91.9896 83.9784 92.143 84.5707 91.8774 85.1203C91.5573 85.7827 90.7331 86.1647 89.283 86.3228L89.1414 86.3384C88.6865 86.3882 88.3859 86.4213 88.16 86.4289C87.9726 86.4355 87.5829 86.4492 87.3316 86.1557C87.0688 85.8489 87.164 85.4967 87.2397 85.2136C87.3344 84.8614 87.4778 84.3288 87.3112 83.4278C87.3065 83.4013 87.3012 83.3758 87.2965 83.3521C87.2619 83.3975 87.2293 83.4416 87.2009 83.4794C86.8595 83.9387 86.5064 84.413 85.9572 84.3221C85.7276 84.2843 85.418 84.1276 85.2466 83.5964C85.0515 82.9923 84.8712 82.5577 84.6217 82.3986C84.3717 82.2391 83.8898 82.276 83.1479 82.5113C83.0494 82.5425 82.9491 82.5624 82.8468 82.5728C82.7095 83.2337 82.6967 83.7484 82.6768 84.5541C82.6726 84.7345 82.6678 84.9272 82.6612 85.1374C82.6413 85.7756 82.4406 86.6296 82.1376 87.3658C81.7409 88.3287 81.2731 88.8708 80.7462 88.9769C80.5052 89.0251 79.9007 89.0431 79.4959 88.1583C79.4244 88.0016 79.3596 87.8728 79.3023 87.7677C79.3008 87.7833 79.2994 87.7994 79.2985 87.8155C79.2739 88.1356 79.2047 88.957 79.0968 89.6699C78.9846 90.4075 78.8454 91.326 78.1571 91.3525C77.7878 91.3662 77.517 91.1148 77.3518 90.6026C77.2594 90.3166 77.1714 89.9 77.0824 89.3286C76.7983 87.5045 76.5119 86.7484 76.3524 86.4469C76.2672 86.5884 76.1464 86.8341 76.0011 87.2536C75.3359 89.1752 74.2731 89.3191 73.847 89.2912C72.8788 89.2287 72.1081 88.2629 71.7852 86.7068C71.6039 85.8328 71.3506 84.9499 71.0907 84.2838C70.8124 83.5703 70.5955 83.2702 70.4833 83.1499C70.4232 83.2361 70.3309 83.4013 70.2244 83.7048C70.0762 84.1266 69.945 84.5503 69.8182 84.9598C69.3509 86.4682 69.0133 87.558 68.1309 87.6214C68.1067 87.6233 68.0826 87.6243 68.0584 87.6243C67.2863 87.6243 66.6964 86.7229 66.0544 85.3731C64.877 82.8981 63.372 82.1401 62.8276 82.2845C62.7722 82.2992 62.6032 82.3442 62.6339 82.7546C62.7097 83.7654 62.3906 85.0616 61.2676 85.6695C60.9145 85.8608 60.4444 85.9966 59.8341 85.963C59.2968 86.1434 58.6846 86.2495 58.0824 86.3536C57.387 86.4743 56.5438 86.6206 56.1622 86.8753C56.2976 86.9501 56.5424 87.0595 56.9779 87.193C57.5569 87.3705 58.2898 87.5372 58.998 87.6977C60.9964 88.1512 62.1463 88.4381 62.5426 89.0616C62.7319 89.3589 62.8811 89.8356 62.5156 90.4175C62.3239 90.7228 62.0237 91.0022 61.7065 91.2976C61.1124 91.851 60.4387 92.4783 60.3606 93.3612C60.3483 93.4999 60.3572 93.579 60.3653 93.6183C60.4287 93.6278 60.5954 93.633 60.9609 93.5425C61.3581 93.4441 61.8429 93.2732 62.4043 93.0748C63.3782 92.7316 64.5901 92.3041 65.8338 92.1085C66.4526 92.0115 66.9099 91.9651 67.2328 91.9698C67.4255 91.9722 68.012 91.9793 68.2317 92.4508C68.4651 92.9503 68.0376 93.4067 67.897 93.5568C67.6934 93.7741 67.4136 94.0183 67.0898 94.3005C66.8417 94.5169 66.5686 94.7555 66.303 95.0059C66.455 94.9784 66.6131 94.9491 66.7698 94.9202C67.5642 94.773 68.6521 94.5713 70.0089 94.3796C72.0428 94.0917 73.4744 94.2584 74.3858 94.889C75.2299 95.4732 75.4197 96.3121 75.5333 96.8134C75.5518 96.8949 75.5693 96.972 75.5859 97.0322C75.6687 97.3295 75.5892 97.6296 75.3738 97.8341C75.1002 98.0945 74.5997 98.2867 72.8102 97.9345C72.1039 97.7953 71.3478 97.6003 70.7787 97.4332C70.8867 97.7404 71.0964 98.1755 71.4463 98.6479C71.807 99.1351 72.5645 99.9854 73.5814 100.212C74.1543 100.339 74.4932 100.42 74.7555 100.508C74.961 100.577 75.442 100.739 75.5494 101.209C75.656 101.677 75.2876 102.031 75.1484 102.164C74.9515 102.353 74.6793 102.566 74.3029 102.863C73.8754 103.199 73.3433 103.617 72.7042 104.172L72.484 104.363C71.3506 105.347 70.8332 105.796 70.1784 105.744C69.5682 105.694 69.1667 105.213 68.5016 104.415C68.0494 103.873 67.4307 103.131 66.5014 102.202C65.3211 101.022 64.9078 100.771 64.7634 100.735C64.718 100.766 64.6361 100.841 64.5736 100.898C64.0959 101.337 63.2963 102.07 61.0153 101.755C59.969 101.61 59.6746 101.808 59.6637 101.851C59.6144 102.046 59.9231 102.796 61.1895 103.872C62.4578 104.948 64.2242 105.952 66.0369 106.627C69.5369 107.928 69.8698 108.157 70.168 108.858C70.2575 109.068 70.3796 109.356 71.3066 110.075C72.333 110.871 74.4 111.832 76.2236 112.68C79.8604 114.37 81.1268 115.045 81.061 115.98C81.0402 116.274 80.8669 116.669 80.1578 116.884C79.7179 117.018 78.8506 117.281 78.5689 117.476C78.6404 117.573 78.818 117.765 79.2554 118.084C79.7814 118.467 80.5573 118.946 81.6973 119.59C82.5448 120.07 83.0774 120.393 83.4244 120.639C83.7113 120.843 84.2458 121.221 84.1137 121.766C83.9877 122.285 83.414 122.358 83.1981 122.386C82.9244 122.422 82.5746 122.435 82.1319 122.452C81.07 122.492 79.6152 122.546 78.1026 122.95C78.0908 122.953 78.0789 122.956 78.0676 122.959C78.2773 123.044 78.5718 123.148 78.9855 123.271C79.7705 123.505 80.7344 123.736 81.5846 123.939C82.2583 124.1 82.8941 124.252 83.359 124.386C83.912 124.545 84.5388 124.726 84.5175 125.306C84.508 125.564 84.3466 125.785 84.0862 125.896C83.9911 125.937 83.877 125.967 83.7269 125.992C82.2882 126.227 73.9147 126.183 65.8168 126.14C60.4926 126.112 55.4639 126.085 52.9671 126.142C51.17 126.182 49.852 125.693 49.0476 124.685C48.6944 124.243 48.4909 123.759 48.3673 123.323C48.3313 123.39 48.2977 123.453 48.2679 123.508C47.8877 124.221 47.6406 124.731 47.4929 125.036C47.4219 125.182 47.3707 125.288 47.3305 125.364C47.0796 125.837 46.7193 125.791 46.5759 125.75C46.4656 125.717 46.1081 125.573 46.1432 125.059C46.1474 124.994 46.1564 124.915 46.1687 124.807C46.2596 124.012 46.5352 121.595 45.478 118.297C45.4051 118.071 45.3398 117.878 45.2806 117.714C45.2025 118.342 45.1376 119.151 45.0846 119.819C44.8502 122.751 44.6273 124.893 43.8844 125.748C43.7031 125.957 43.2794 126.445 42.726 126.336C42.1792 126.228 41.9993 125.695 41.791 125.078C41.4449 124.052 40.9715 122.648 39.0068 122.397C38.8643 122.378 38.7511 122.37 38.6631 122.367C38.7847 122.571 38.9713 122.833 39.1119 123.03C39.7202 123.885 40.4777 124.95 39.9901 125.85C39.5914 126.586 38.5594 126.88 36.6439 126.804C29.6296 126.523 0.870537 125.958 0.580801 125.952C0.254138 125.946 -0.00577152 125.676 0.00085642 125.349C0.00701094 125.026 0.270708 124.769 0.592163 124.769C0.595951 124.769 0.600212 124.769 0.603999 124.769C0.893735 124.775 29.6647 125.341 36.6908 125.622C38.7005 125.702 38.9395 125.304 38.949 125.287C38.9784 125.233 38.966 125.071 38.834 124.793C38.6744 124.458 38.4065 124.081 38.147 123.717C37.5941 122.939 37.1164 122.269 37.4795 121.663C37.8024 121.124 38.5452 121.145 39.1568 121.223C41.8558 121.568 42.5428 123.606 42.912 124.7C42.939 124.781 42.9703 124.873 43.001 124.96C43.5379 124.308 43.758 121.553 43.9039 119.726C43.9777 118.803 44.0473 117.931 44.1444 117.281C44.2324 116.694 44.365 115.807 45.0529 115.727C45.7398 115.649 46.1147 116.408 46.6043 117.936C47.1875 119.756 47.3925 121.33 47.4408 122.545C47.6136 122.226 47.7495 121.983 47.857 121.809C47.9999 121.577 48.266 121.146 48.7399 121.231C49.2318 121.319 49.2966 121.797 49.3487 122.181C49.4841 123.177 49.7369 125.03 52.9396 124.958C55.4535 124.901 60.4903 124.928 65.8225 124.956C71.2839 124.985 77.2647 125.016 80.7424 124.953C77.7116 124.216 76.4622 123.787 76.4513 122.92C76.4414 122.167 77.392 121.914 77.7977 121.806C79.4386 121.369 81.0326 121.308 82.0874 121.269C82.1296 121.267 82.1722 121.265 82.2152 121.264C81.9435 121.097 81.5856 120.887 81.1145 120.621C79.7795 119.865 78.8956 119.309 78.3332 118.871C77.8081 118.461 77.2803 117.958 77.3499 117.327C77.4408 116.505 78.4099 116.179 79.6597 115.798C79.4741 115.656 79.1494 115.442 78.5827 115.138C77.7954 114.715 76.7893 114.248 75.7241 113.753C73.7518 112.836 71.7123 111.888 70.5804 111.01C69.5 110.171 69.2534 109.733 69.0782 109.321C69.0204 109.185 69.0048 109.148 68.7061 108.988C68.2492 108.743 67.3275 108.369 65.6241 107.735C63.6594 107.005 61.8126 105.953 60.4235 104.774C59.5875 104.064 58.2283 102.703 58.5156 101.561C58.5814 101.301 58.7964 100.831 59.4985 100.625C59.9274 100.5 60.4766 100.485 61.1772 100.582C62.9062 100.821 63.3867 100.38 63.773 100.026C64.059 99.7633 64.4912 99.3671 65.2023 99.6369C65.6743 99.8159 66.2732 100.301 67.3374 101.365C68.3046 102.332 68.9433 103.098 69.4096 103.657C69.749 104.064 70.1339 104.526 70.2731 104.564C70.4596 104.552 71.0936 104.002 71.7066 103.47L71.9277 103.278C72.5882 102.705 73.1326 102.277 73.5696 101.933C73.7414 101.798 73.9161 101.66 74.0629 101.54C73.82 101.478 73.5341 101.414 73.3229 101.367C71.3672 100.933 69.9384 98.8638 69.5886 97.6022C69.4266 97.0189 69.4887 96.5867 69.7722 96.3173C69.8788 96.216 70.1784 95.9977 70.6561 96.1568C71.1253 96.313 72.0115 96.5611 72.8495 96.7358C73.6359 96.9001 74.0927 96.9417 74.3474 96.9451C74.2542 96.5493 74.1296 96.153 73.7107 95.8633C73.0649 95.4164 71.8747 95.3117 70.1732 95.5527C68.8415 95.7411 67.7678 95.94 66.9838 96.0853C66.3792 96.1975 65.9422 96.2785 65.6146 96.3154C65.3339 96.3471 64.7492 96.4129 64.5021 95.9438C64.2199 95.4078 64.7066 94.9212 65.2217 94.4061C65.5872 94.0406 65.9711 93.7054 66.3101 93.41C66.3839 93.3456 66.4644 93.2755 66.5449 93.204C66.3958 93.222 66.2206 93.2467 66.0161 93.2789C64.8794 93.4573 63.773 93.8479 62.7963 94.1921C61.3415 94.7053 60.29 95.076 59.6201 94.5562C59.275 94.2882 59.1273 93.8512 59.1798 93.2575C59.2987 91.923 60.2228 91.0613 60.8979 90.4326C61.1294 90.2172 61.5129 89.8593 61.5508 89.713C61.5498 89.7116 61.5489 89.7097 61.5479 89.7078C61.5162 89.6775 61.3401 89.536 60.6342 89.3239C60.0926 89.1615 59.4019 89.0043 58.7339 88.8528C56.4832 88.342 55.1955 88.0134 54.9091 87.2058C54.8447 87.024 54.7822 86.6604 55.0899 86.2689C55.5837 85.6402 56.5315 85.4266 57.5678 85.2425C57.0513 84.9669 56.4827 84.6005 55.8578 84.1214C54.1275 82.7963 52.2716 80.9627 50.893 79.2167C50.2103 78.3523 49.6777 77.547 49.353 76.887C48.9288 76.0263 48.8369 75.3777 49.0727 74.9048C49.2858 74.4768 49.8226 74.0446 51.1686 74.4176C53.0774 74.9464 55.3759 76.3198 57.475 78.1851C59.4994 79.9842 60.9585 81.9124 61.378 83.3431C61.3926 83.3938 61.4059 83.4439 61.4177 83.4932C61.4575 83.2697 61.4655 83.0444 61.4509 82.8436C61.3865 81.9858 61.7965 81.3334 62.5213 81.1407C63.7692 80.8098 65.7496 81.9825 67.1206 84.8647C67.5978 85.8679 67.8899 86.2405 68.0291 86.3768C68.2336 86.0672 68.5006 85.2051 68.6853 84.61C68.8154 84.1901 68.9499 83.7559 69.1052 83.3133C69.2325 82.9502 69.6207 81.8447 70.5255 81.9058C71.1267 81.9455 71.6295 82.4999 72.1081 83.6494C72.4229 84.405 72.7264 85.4318 72.9409 86.4658C73.1847 87.6413 73.66 88.093 73.9199 88.1095C74.177 88.1275 74.5742 87.7478 74.8795 86.8658C75.175 86.0132 75.619 85.0441 76.4404 85.117C77.1027 85.1762 77.4384 85.9034 77.6334 86.445C77.7925 86.8867 77.9412 87.4633 78.0785 88.1668C78.0912 88.0243 78.104 87.8766 78.1154 87.7237C78.1424 87.3753 78.2238 86.3143 78.996 86.177C79.7279 86.0468 80.2212 86.9037 80.5692 87.665C80.5777 87.6839 80.5862 87.701 80.5942 87.7166C80.7112 87.5784 80.8925 87.2986 81.0847 86.8029C81.311 86.2187 81.4611 85.5658 81.4758 85.0995C81.4824 84.8921 81.4871 84.7018 81.4914 84.5238C81.5117 83.6939 81.5264 83.1035 81.6841 82.3409C80.5512 81.8409 79.4561 80.6938 79.0523 80.2407C78.5046 79.6267 76.7628 77.5228 77.3409 76.2327C77.4663 75.9529 77.81 75.4838 78.7062 75.4838C79.9542 75.4838 81.0596 76.0822 81.9018 77.2146C82.8605 78.5028 83.2558 80.1882 83.1474 81.2771C84.0805 81.0299 84.74 81.0707 85.2561 81.3997C85.7427 81.7103 86.0169 82.2395 86.2252 82.8043C86.2337 82.793 86.2417 82.7821 86.2493 82.7717C86.5883 82.3162 87.0101 81.7495 87.617 81.8906C88.2557 82.0388 88.4076 82.8607 88.4725 83.2115C88.6425 84.1299 88.5539 84.7866 88.4564 85.2198C88.6178 85.2041 88.8082 85.1833 89.0103 85.161L89.1519 85.1454C90.5541 84.9925 90.7781 84.6682 90.8088 84.6048C90.8543 84.5106 90.8642 84.2469 90.4197 83.54C90.2852 83.3265 90.0054 82.882 90.2781 82.472C90.5418 82.0753 90.9925 82.1505 91.3547 82.2107C92.0573 82.3276 92.5406 82.3551 92.845 81.6975C93.2209 80.887 92.8313 80.3875 91.9867 79.4236C91.4541 78.8162 90.8505 78.1274 90.468 77.2009C90.3511 76.9178 90.236 76.7881 90.1674 76.7616C90.041 76.7128 89.7138 76.8671 89.4752 76.9798C89.0534 77.1791 88.5288 77.4272 87.9934 77.2279C87.6577 77.1034 87.3936 76.8283 87.2075 76.4103C86.7194 75.3124 87.1417 74.625 87.4811 74.0725C87.6473 73.8022 87.8088 73.5394 87.8978 73.2028C87.8855 73.2042 87.8731 73.2057 87.8613 73.2071C86.7928 73.3259 85.8142 73.0144 85.0317 72.3062C84.1975 71.551 83.6256 70.3874 83.3325 68.8478C83.049 67.3584 83.8973 67.0649 84.1643 67.0104C85.1822 66.8026 86.4959 67.9369 87.0139 68.434C87.9366 69.3203 88.633 70.3552 88.9355 71.2727C88.9554 71.2523 88.9757 71.232 88.9956 71.2111C89.3957 70.8026 89.8094 70.3793 90.4187 70.3765C90.4211 70.3765 90.4235 70.3765 90.4254 70.3765C90.8316 70.3765 91.2231 70.5706 91.6227 70.9702C91.8991 71.2466 92.0795 71.2973 92.1254 71.2973C92.1254 71.2973 92.1254 71.2973 92.1259 71.2973C92.241 71.196 92.4246 70.4248 91.7282 69.1659C91.4735 68.7058 91.2548 68.2716 91.0617 67.8886C90.2744 66.3263 89.9146 65.6905 88.9 65.6356C88.0232 65.5883 87.4726 65.5362 87.2099 65.085C86.9613 64.6575 87.1725 64.2347 87.4395 63.6993C87.5266 63.5251 87.6251 63.3281 87.7297 63.0966C87.7699 63.0076 87.7865 62.9485 87.7931 62.9139C87.6885 62.8542 87.4371 62.7875 87.279 62.7453C86.7426 62.6024 86.0083 62.4069 85.7664 61.6806C85.649 61.3284 85.7252 61.068 85.81 60.9113C85.8923 60.7589 86.0083 60.65 86.1409 60.5676C85.4412 60.4185 84.6804 60.0142 83.9541 59.3926C83.1758 58.7265 82.0647 57.4974 81.1903 55.4276C80.1653 53.0018 80.0323 51.4797 80.7841 50.7748C81.3328 50.2602 82.2034 50.2957 83.3732 50.8804C84.6321 51.51 86.0178 52.8219 87.1744 54.4798C88.2505 56.0227 88.9156 57.5647 89.0326 58.7695C89.3114 58.6914 89.5869 58.6351 89.8511 58.6228C90.8145 58.5783 91.2591 59.1303 91.4631 59.6013C91.6923 60.1297 91.8362 60.7712 91.9635 61.3369C91.9839 61.4273 92.0061 61.5263 92.0293 61.6252C92.2831 61.167 92.5421 60.7574 92.7769 60.4464C93.1324 59.9749 93.6158 59.4536 94.2042 59.6084C94.9816 59.813 94.9385 60.9075 94.9205 61.3748C94.8562 63.0124 95.0119 63.4915 95.1535 63.6046C95.1838 63.6288 95.3182 63.6979 95.7864 63.5729C96.203 63.4616 96.9132 62.6611 97.4316 62.0764C98.2875 61.1106 98.9636 60.3479 99.7196 60.5094C99.9497 60.5581 100.249 60.7125 100.448 61.1532C100.744 60.908 101.197 60.3886 101.493 60.0487C102.404 59.0029 103.124 58.1768 103.902 58.3955C104.309 58.5101 104.565 58.8661 104.665 59.4536C104.942 61.0884 103.861 61.7071 103.145 62.1162C102.402 62.5408 102.029 62.7543 102.243 63.6799C102.423 64.4554 102.4 64.9686 102.167 65.3435C101.914 65.7492 101.506 65.8643 101.178 65.9561C100.663 66.1005 100.218 66.2255 99.9753 67.4768C99.9137 67.7935 99.8588 68.0676 99.8115 68.3043C99.7959 68.3819 99.7807 68.4582 99.766 68.5315C99.9213 68.4586 100.096 68.3857 100.291 68.319C100.685 68.1841 101.732 67.8247 102.225 68.4842C102.677 69.0888 102.337 70.0522 101.013 71.9198C100.6 72.5031 100.627 72.7242 100.637 72.7625C100.658 72.8478 100.817 72.9633 100.957 73.0651C101.226 73.261 101.632 73.5579 101.662 74.0957C101.691 74.6226 101.345 75.1751 100.504 75.9435C100.149 76.2678 99.8408 76.5727 99.5757 76.8543C100.277 76.5731 100.942 76.5812 101.411 76.922C101.827 77.2236 102.389 78.0043 101.487 79.8393C101.403 80.0107 101.329 80.1645 101.265 80.3009C101.682 80.1579 102.216 80.0026 102.835 79.9368C103.41 79.8757 103.987 79.8743 104.32 80.2744C104.657 80.6796 104.51 81.1715 104.368 81.6473C104.21 82.1752 104.014 82.8327 104.302 83.5784C104.319 83.6234 104.336 83.665 104.352 83.7038C104.638 83.238 105.061 82.5875 105.773 82.0791L105.915 81.9777C107.543 80.8131 108.576 80.1262 109.269 80.664C109.853 81.118 109.599 82.0341 109.273 82.8697C109.229 82.9819 109.146 83.1935 109.066 83.4113C109.448 83.3142 109.931 83.2484 110.485 83.3507C111.882 83.6077 112.605 84.084 112.634 84.7662C112.671 85.652 111.531 86.0781 110.534 86.3498C110.094 86.4696 109.754 86.5534 109.481 86.6206C109.45 86.6282 109.419 86.6358 109.388 86.6438C109.493 86.8119 109.613 87.0226 109.733 87.2858C109.812 87.459 110.052 87.9869 109.733 88.4253C109.391 88.8954 108.762 88.8249 108.096 88.7496C107.514 88.6838 106.802 88.6033 106.483 88.8822C106.769 89.0114 107.364 89.1298 107.616 89.1799C107.846 89.2259 108.045 89.2652 108.208 89.312C108.628 89.4328 108.848 89.66 108.862 89.9871C108.887 90.5576 108.264 90.7375 107.891 90.845C106.687 91.1929 105.644 90.9198 105.02 90.756C105.116 91.0462 105.27 91.397 105.441 91.788C105.539 92.0106 105.642 92.2468 105.745 92.4949C106.59 92.413 107.282 92.4906 107.831 92.8802C108.39 93.2774 108.709 93.9312 108.835 94.9368C108.901 95.4623 108.96 96.1156 109.023 96.8078C109.102 97.6741 109.231 99.0807 109.384 99.9324C109.821 99.5238 110.277 99.5337 110.491 99.5688C111.481 99.7311 112.277 101.052 112.619 103.103C113.078 105.861 111.961 108 111.361 109.149C111.299 109.268 111.24 109.38 111.191 109.478C110.904 110.053 110.486 110.213 110.186 110.246C109.644 110.306 109.047 110.019 108.253 109.315C107.57 108.71 106.706 107.762 105.611 106.415C104.846 105.475 104.53 105.418 104.493 105.415C104.362 105.481 104.139 105.964 104.019 106.225C103.833 106.629 103.622 107.087 103.308 107.427C102.874 107.895 102.319 108.055 101.704 107.892C101.19 107.754 100.953 107.437 100.846 107.194C100.444 106.29 101.144 104.928 102.029 103.205C102.348 102.582 102.684 101.927 102.97 101.285C101.936 101.232 100.813 100.549 99.6207 99.2445C98.9574 98.5187 98.2894 97.6841 97.6726 96.821C97.7592 97.6841 97.8648 98.6446 97.994 99.7222C98.3311 102.542 98.7311 105.231 99.0838 107.603C99.9947 113.727 100.714 118.565 99.8735 121.859C99.5085 123.288 98.7032 124.21 97.5817 124.5C98.6137 124.432 99.757 124.317 101.024 124.155C104.996 123.647 107.393 123.341 108.658 122.422C109.808 121.587 110.228 120.104 110.79 116.876C111.504 112.769 113.485 104.481 115.073 98.1892C114.569 98.3009 114.054 98.3369 113.539 98.2943C111.558 98.1296 109.77 96.7978 109.289 95.1271C108.738 93.2168 108.405 91.8046 109.134 91.031C109.71 90.4189 110.653 90.5448 111.313 90.693C111.721 90.7844 112.29 90.9643 112.518 91.4647C112.747 91.9665 112.495 92.4357 112.311 92.7784C112.272 92.8495 112.221 92.9446 112.189 93.0189C112.27 93.054 112.423 93.1037 112.697 93.1477C112.982 93.1936 113.145 93.1927 113.231 93.1837C113.199 92.9063 112.937 92.2866 112.74 91.8198C112.38 90.9714 111.934 89.9161 111.736 88.7666C111.595 87.9424 111.482 87.2915 112.009 87.0349C112.16 86.961 112.468 86.8838 112.821 87.1968C112.914 87.2787 113.005 87.38 113.112 87.4974C113.463 87.8837 113.694 88.0792 113.8 88.0792C113.8 88.0792 113.801 88.0792 113.801 88.0792C113.8 88.0792 113.86 88.0556 113.959 87.9088C114.356 87.3227 114.214 86.6206 114.101 86.0568C114.009 85.5942 113.903 85.0702 114.331 84.7624C114.793 84.4291 115.383 84.7212 116.165 85.1705C116.433 85.3249 116.63 85.4162 116.77 85.4707C116.611 85.028 116.16 84.2057 115.325 83.2276C114.695 82.4895 114.13 82.3721 113.717 82.2864C113.412 82.223 113.033 82.1444 112.87 81.7495C112.689 81.3107 112.945 80.8709 113.387 80.1986C113.529 79.9827 113.599 79.8464 113.632 79.7659C113.58 79.7389 113.515 79.7086 113.462 79.6835C112.976 79.4553 112.203 79.0922 111.792 77.9446C111.636 77.8874 111.478 77.822 111.315 77.7477C109.367 76.8605 107.806 75.2073 107.031 73.2118C106.652 72.2375 106.678 71.445 107.105 70.8556C107.585 70.1937 108.505 69.939 109.565 70.1748C110.709 70.429 111.758 71.0961 112.501 72.0051C112.849 70.999 113.174 70.047 113.29 69.1333C113.334 68.79 113.348 68.4411 113.361 68.1036C113.396 67.2206 113.433 66.3079 113.978 65.3771C114.42 64.622 115.091 63.9853 115.683 63.4238C115.912 63.206 116.129 63.0005 116.324 62.7974C116.878 62.2203 117.163 61.3431 117.465 60.4147C117.688 59.7244 117.92 59.0105 118.282 58.388C118.769 57.5486 119.35 56.739 119.911 55.956C120.306 55.4049 120.679 54.8846 121.016 54.3624C121.147 54.1584 121.276 53.9477 121.401 53.7441C121.931 52.8768 122.479 51.9797 123.422 51.3022C124.032 50.8638 124.71 50.5248 125.46 50.2858C126.18 48.3911 127.034 46.6129 127.597 45.4422C127.665 45.2992 127.729 45.1666 127.787 45.0459C128.211 44.1559 128.698 44.1019 129.031 44.2136C129.43 44.3471 129.85 44.759 129.945 46.8037C129.993 47.8306 129.934 48.9768 129.79 49.9132C130.514 49.9771 131.279 50.0931 132.087 50.2607C135.925 51.056 155.143 53.2821 158.667 53.5642C159.855 53.6594 160.799 54.1925 161.532 54.8472C161.412 54.5437 161.282 54.2213 161.144 53.8824C160.851 53.8047 160.616 53.6584 160.437 53.4426C159.515 52.3305 156.373 47.2871 153.886 43.1058C152.271 40.3917 148.475 33.9072 148.102 32.3222C147.982 31.8132 148.263 31.2063 149.041 30.2931C149.614 29.6213 150.479 28.7634 151.614 27.7446C153.526 26.0275 156.245 23.8086 159.697 21.1489C165.31 16.8246 171.476 12.409 173.193 11.2032C174.402 10.3543 176.101 11.7254 177.275 12.8303C178.651 14.1266 180.138 15.9081 181.223 17.209C181.466 17.5002 181.721 17.8055 181.956 18.0816C181.975 17.3023 182.083 16.22 182.401 14.8168C182.987 12.2371 184.114 9.44866 185.661 6.75298C186.579 5.15281 187.822 3.76993 189.256 2.75349C190.837 1.63242 192.587 0.977677 194.456 0.807717C197.698 0.512774 202.774 1.59408 208.545 8.41707C216.676 18.0304 215.025 30.1875 214.039 37.4512C213.838 38.9335 213.663 40.2141 213.608 41.2145C213.439 44.2496 212.646 44.8546 212.064 45.0459C211.805 45.1311 211.544 45.1359 211.283 45.0776C211.853 45.6325 212.307 46.0969 212.654 46.4823C213.412 47.3221 213.78 47.8732 213.559 48.3779C213.458 48.6089 213.27 49.0392 207.446 53.8402C204.227 56.4947 199.778 60.0743 194.921 63.9199C190.378 67.5165 185.787 71.0994 182.326 73.7492C176.428 78.2652 176.13 78.3196 175.912 78.3589C175.412 78.4503 174.88 78.1179 174.132 77.2501C173.586 76.6153 172.918 75.6859 172.148 74.4867C170.679 72.2011 168.916 69.0599 167.183 65.6408C166.594 64.48 166.281 63.7107 166.104 63.2164C165.772 63.3802 165.289 63.5331 164.581 63.5947C162.939 63.7377 160.513 63.3651 157.373 62.4873C152.687 61.1783 147.873 59.5095 143.626 58.0371C139.806 56.713 136.507 55.5692 133.93 54.8875C132.586 54.5319 131.556 54.334 130.78 54.2819C129.793 54.2157 129.513 54.4145 129.45 54.477C129.027 54.8998 128.588 55.3997 128.163 55.8831C126.866 57.3601 125.928 58.4268 125.005 58.1015C124.285 57.8473 124.162 56.9028 124.132 56.214C124.128 56.0989 124.126 55.9815 124.127 55.8627C123.844 56.3413 123.611 56.8976 123.453 57.558C123.166 58.753 122.422 59.6927 121.703 60.6017C120.916 61.5959 120.173 62.5347 120.193 63.66C120.21 64.639 120.142 65.7525 119.111 66.5754C118.673 66.9243 118.255 67.1165 117.885 67.286C117.274 67.5667 116.938 67.721 116.707 68.4179C116.436 69.2313 116.396 70.1705 116.357 71.079C116.343 71.3868 116.33 71.7049 116.307 72.015C116.245 72.8601 116.046 73.7179 115.797 74.5118C115.862 74.4957 115.929 74.4905 115.997 74.4972C116.182 74.5152 116.348 74.6188 116.445 74.7774C116.784 75.3328 116.846 76.0268 116.9 76.6389C116.921 76.8775 116.941 77.1029 116.975 77.3008C117.161 78.3811 117.373 78.6145 117.422 78.6553C117.473 78.6453 117.691 78.5752 118.131 78.09C119.059 77.065 119.731 76.3246 120.535 76.5069C121.253 76.6702 121.595 77.5143 121.835 78.3182C121.978 78.7978 122.112 78.9909 122.177 79.0624C122.349 78.926 122.796 78.3381 123.152 76.7478C123.312 76.0363 123.488 75.5046 123.691 75.1211C123.967 74.5994 124.318 74.3319 124.733 74.3258C124.737 74.3258 124.742 74.3258 124.747 74.3258C125.677 74.3258 126.128 75.6703 126.386 76.6839C126.433 76.8681 126.479 76.9741 126.512 77.0319C126.612 76.9765 126.827 76.8198 127.194 76.38C127.573 75.9255 127.98 75.3347 128.374 74.7628C128.655 74.3547 128.921 73.9688 129.176 73.6327C129.313 73.4509 129.731 72.8994 130.344 72.9623C130.754 73.0049 131.027 73.2852 131.247 73.645C131.981 72.345 133.324 70.9375 135.22 69.833C136.884 68.8639 138.163 68.2039 139.13 67.8162C140.045 67.4493 141.176 67.1028 141.814 67.6827C142.489 68.2977 142.093 69.3951 141.736 70.1667C140.374 73.1096 135.684 75.2078 133.206 76.139C133.437 76.1556 133.675 76.1788 133.902 76.2105C134.62 76.3109 135.371 76.4993 135.49 77.1308C135.64 77.9229 134.643 78.384 133.697 78.7542C133.423 78.8617 133.183 78.954 132.974 79.0345C132.659 79.1557 132.37 79.2669 132.172 79.3512C132.34 79.6764 132.569 80.1868 132.65 81.0342C132.688 81.4286 132.713 81.6894 132.718 81.8845C132.723 82.0568 132.733 82.4602 132.401 82.685C132.051 82.9218 131.704 82.7418 131.451 82.6102C131.034 82.3939 130.259 81.991 128.75 82.2429C128.108 82.3499 127.829 82.4597 127.717 82.5189C127.757 82.6893 127.836 83.0382 127.587 83.3601C127.297 83.7356 126.746 83.8733 125.401 83.9074C123.495 83.9557 121.902 85.2477 120.902 86.3228C119.502 87.8274 118.63 89.5639 118.282 90.6873C118.048 91.4401 117.52 93.4015 116.858 95.9698C117.552 95.3676 118.253 94.469 118.887 93.1444C120.099 90.6111 120.677 88.9162 121.06 87.7947C121.696 85.9285 121.935 85.2302 123.764 85.047C124.037 85.02 124.76 84.9475 125.038 85.4849C125.327 86.0445 124.852 86.5898 124.302 87.2209C124.076 87.4804 123.843 87.7488 123.673 87.9978C123.52 88.2227 123.48 88.3467 123.469 88.3974C123.472 88.3988 123.474 88.4007 123.477 88.4021C123.738 88.5673 123.865 88.5295 124.325 88.1474C124.611 87.9093 125.004 87.5826 125.496 87.7251C125.99 87.8676 126.217 88.3794 126.374 88.8613C126.421 89.0052 126.467 89.0521 126.481 89.0583C126.676 89.143 127.423 88.7913 127.868 88.5815C129.031 88.0343 130.623 87.2844 132.108 88.1001C132.896 88.5323 133.318 88.7316 133.566 88.7889C133.704 88.8206 133.746 88.8093 134.016 88.7084C134.294 88.6043 134.675 88.4618 135.336 88.3652C136.722 88.1621 137.668 88.439 137.929 89.1241C138.183 89.7921 137.72 90.5212 136.552 91.2909C136.09 91.5954 135.633 91.8032 135.217 91.9476C135.396 92.0148 135.542 92.0712 135.658 92.1246C136.032 92.2974 136.206 92.5446 136.176 92.8594C136.127 93.3693 135.599 93.4824 135.284 93.5501C134.982 93.615 134.528 93.6903 133.899 93.7944C133.495 93.8616 133.038 93.9374 132.492 94.0311C131.639 94.1784 130.977 94.2413 130.474 94.2622C130.478 94.2688 130.482 94.2754 130.486 94.282C131.259 95.5811 131.396 96.4565 130.906 96.9588C130.276 97.6036 129.125 97.0715 128.314 96.6155C127.632 96.2316 126.769 95.7463 126.213 95.5002C126.375 95.859 126.563 96.1611 126.703 96.3874C126.795 96.5346 126.867 96.6506 126.92 96.759C127.118 97.1643 126.98 97.4336 126.875 97.5615C127.132 97.4739 127.406 97.4313 127.698 97.4502C128.976 97.5354 129.83 97.8782 130.309 98.4984C130.611 98.888 130.741 99.3751 130.692 99.9191C130.812 99.9177 130.955 99.9096 131.066 99.903C131.498 99.8779 132.117 99.8419 132.589 100.077C132.812 99.8178 133.102 99.5569 133.482 99.3013C134.407 98.6787 135.634 98.4718 136.938 98.719C138.096 98.9382 139.102 99.4902 139.564 100.159C140.069 100.892 139.897 101.718 139.125 102.264C137.733 103.249 135.536 103.151 133.976 102.617C133.711 102.526 133.361 102.386 133.03 102.192C133.028 102.239 133.027 102.286 133.026 102.333C133.012 102.932 132.991 103.837 131.763 104.11C130.855 104.312 130.441 104.262 130.057 103.905C130.053 103.902 130.049 103.898 130.045 103.894C130.002 103.888 129.878 103.882 129.598 103.927C129.523 103.939 129.471 103.952 129.435 103.962C129.435 103.985 129.435 104.01 129.434 104.031C129.433 104.271 129.431 104.633 129.173 105.007C128.917 105.379 128.481 105.659 127.8 105.891C127.599 105.96 127.414 106.024 127.244 106.086C127.527 106.09 127.771 106.114 127.975 106.159C128.687 106.315 128.854 106.724 128.891 106.954C129.013 107.716 128.083 108.218 127.778 108.383C127.122 108.737 126.211 109.059 125.144 109.315C124.728 109.415 124.464 109.503 124.298 109.57C124.497 109.745 124.778 110.036 124.649 110.45C124.487 110.97 123.838 111.036 123.409 111.08C122.881 111.134 122.396 111.144 121.969 111.152C120.478 111.18 119.73 111.195 118.961 112.827C118.618 113.552 118.663 113.854 118.709 113.909C118.714 113.915 118.845 114.062 119.484 114.019C119.938 113.988 120.515 113.874 121.299 113.66C121.674 113.558 122.551 113.319 122.913 113.943C123.224 114.479 122.85 115.107 122.146 115.947C121.528 116.683 120.585 117.643 119.743 118.484C118.784 119.443 117.819 120.142 117.114 120.653C117.087 120.672 117.061 120.691 117.034 120.71C117.217 120.709 117.435 120.703 117.694 120.694C118.21 120.675 119.171 120.641 119.374 121.332C119.602 122.104 118.643 122.676 116.903 123.713C116.284 124.082 115.237 124.707 114.764 125.112C115.138 125.216 115.893 125.368 117.387 125.52C118.954 125.68 121.04 125.809 123.261 125.883C127.907 126.038 132.054 125.935 133.345 125.633C133.486 125.6 133.957 125.336 134.091 123.329C134.19 121.853 134.072 119.988 133.968 118.341C133.899 117.268 133.836 116.255 133.843 115.499C133.85 114.715 133.912 113.862 134.55 113.66C135.237 113.442 135.767 114.195 136.21 114.916C137.689 117.329 138.307 120.525 138.758 122.858C138.88 123.492 139.022 124.227 139.154 124.723C139.226 124.568 139.312 124.366 139.413 124.103C140.106 122.303 140.442 120.873 140.643 120.019C140.71 119.734 140.763 119.51 140.811 119.347C140.846 119.233 140.876 119.151 140.912 119.081C141.096 118.724 141.413 118.702 141.507 118.704C142.027 118.715 142.152 119.243 142.219 119.527C142.281 119.789 142.355 120.174 142.458 120.708C142.521 121.033 142.592 121.403 142.677 121.834C142.988 123.406 143.267 124.22 143.452 124.632C143.619 124.059 143.857 122.747 143.967 119.796C144.055 117.421 144.149 115.898 144.272 114.859C144.402 113.759 144.579 112.764 145.307 112.667C146.002 112.574 146.374 113.406 146.574 113.854C146.835 114.439 147.142 115.3 147.537 116.565C148.202 118.688 148.473 121.064 148.619 122.884C149.13 120.959 149.579 120.263 150.25 120.232C151.132 120.191 151.509 121.348 152.033 122.949C152.403 124.083 152.98 124.729 154.025 125.181C155.288 125.728 157.258 125.972 160.224 125.949C166.404 125.903 323.817 125.949 325.406 125.949C325.733 125.949 325.998 126.215 325.998 126.541C325.998 126.868 325.733 127.133 325.406 127.133C324.35 127.132 254.39 127.112 205.817 127.112C181.339 127.112 162.303 127.117 160.233 127.133C157.097 127.157 154.975 126.882 153.555 126.268C152.199 125.681 151.383 124.771 150.908 123.316C150.743 122.812 150.493 122.047 150.29 121.632C150.126 121.967 149.855 122.703 149.491 124.305C149.338 124.978 149.223 125.431 149.13 125.733C149.036 126.039 148.86 126.609 148.31 126.566C147.746 126.522 147.674 125.904 147.636 125.573C147.6 125.261 147.571 124.835 147.535 124.298C147.413 122.496 147.209 119.48 146.408 116.918C146.008 115.64 145.726 114.873 145.53 114.414C145.488 114.662 145.443 114.995 145.4 115.44C145.304 116.428 145.224 117.827 145.149 119.841C145.077 121.785 144.942 123.282 144.745 124.292C144.572 125.182 144.296 126.099 143.562 126.157C142.789 126.217 142.402 125.219 142.255 124.843C141.999 124.182 141.75 123.247 141.515 122.064C141.49 121.937 141.466 121.815 141.443 121.698C141.23 122.482 140.937 123.438 140.518 124.529C140.138 125.516 139.738 126.397 139.011 126.332C138.363 126.275 138.14 125.487 138.032 125.108C137.887 124.595 137.752 123.895 137.595 123.084C137.161 120.839 136.567 117.765 135.2 115.536C135.137 115.434 135.081 115.345 135.029 115.268C135.006 116.03 135.085 117.28 135.148 118.268C135.254 119.95 135.376 121.856 135.271 123.409C135.184 124.712 134.917 126.481 133.614 126.786C132.541 127.042 130.074 127.141 127.377 127.141ZM79.538 101.844C79.601 102.049 79.6815 102.291 79.7847 102.58C82.0505 108.915 87.0068 118.698 88.6917 121.711C89.4653 123.094 90.504 123.854 92.1662 124.254C93.237 124.511 94.5849 124.615 96.2802 124.567C95.064 124.398 93.719 123.635 92.3404 122.321C90.547 120.612 88.7916 118.036 87.2638 114.872C85.7096 111.653 83.8173 108.223 82.0727 105.461C80.9129 103.625 80.0825 102.495 79.538 101.844ZM104.492 104.235C105.092 104.235 105.728 104.686 106.529 105.672C107.601 106.989 108.431 107.901 109.069 108.46C109.747 109.054 110.012 109.074 110.053 109.074C110.066 109.062 110.097 109.026 110.134 108.953C110.187 108.846 110.248 108.73 110.313 108.606C110.886 107.508 111.846 105.669 111.452 103.303C111.148 101.478 110.534 100.78 110.301 100.742C110.253 100.734 110.129 100.831 110.001 101.07C109.693 101.649 109.295 101.664 109.085 101.622C108.525 101.508 108.325 100.871 108.152 99.7345C108.028 98.9235 107.935 97.9052 107.845 96.9204C107.783 96.2387 107.724 95.5944 107.661 95.0883C107.581 94.444 107.412 94.0387 107.146 93.8498C106.928 93.694 106.592 93.6429 106.175 93.6566C106.504 94.6987 106.705 95.8855 106.463 97.1609C106.29 98.0728 105.764 100.086 104.4 100.922C104.046 101.871 103.548 102.841 103.081 103.75C102.689 104.514 102.318 105.236 102.101 105.819C101.833 106.538 101.926 106.715 101.929 106.72C101.929 106.721 101.948 106.736 102.01 106.753C102.326 106.837 102.497 106.708 102.944 105.735C103.245 105.082 103.586 104.341 104.342 104.245C104.392 104.239 104.442 104.235 104.492 104.235ZM133.37 101C133.556 101.15 133.898 101.351 134.436 101.526C135.652 101.923 137.424 102.022 138.443 101.301C138.759 101.078 138.681 100.965 138.591 100.835C138.041 100.039 135.636 99.2828 134.144 100.287C133.778 100.534 133.533 100.77 133.37 101ZM122.7 96.6558C122.621 96.6558 122.551 96.6634 122.486 96.6776C122.092 96.7633 121.697 97.1481 120.982 97.8474C120.917 97.9104 120.85 97.9757 120.781 98.0434C119.839 98.9599 119.528 99.9565 119.581 100.253C119.683 100.251 119.968 100.206 120.533 99.8599C121.412 99.3221 121.985 98.718 122.403 98.2768C122.586 98.0846 122.729 97.9326 122.869 97.8171C123.155 97.5808 123.439 97.5094 123.713 97.6036C124.262 97.793 124.351 98.451 124.46 99.5986C124.464 99.6393 124.468 99.6772 124.472 99.7132C124.551 99.6185 124.632 99.5191 124.703 99.431C125.147 98.8832 125.694 98.2086 126.367 97.8048C126.159 97.8095 125.954 97.7409 125.814 97.694C125.547 97.6045 125.164 97.4526 124.595 97.2206C123.618 96.822 123.071 96.6558 122.7 96.6558ZM97.4524 94.3256C98.2951 95.7492 99.4072 97.2599 100.495 98.4505C101.306 99.3373 102.475 100.337 103.446 100.062C103.447 100.061 103.448 100.061 103.449 100.061C103.643 99.4514 103.744 98.8832 103.685 98.4013C103.5 96.8996 103.27 95.9679 102.527 95.0424C101.754 94.0808 100.391 93.0833 97.8212 91.5977C97.6281 91.486 97.4553 91.3932 97.3009 91.3165C97.3199 92.1431 97.362 93.1084 97.4524 94.3256ZM103.223 94.034C103.302 94.123 103.377 94.2115 103.448 94.301C104.365 95.4419 104.651 96.5715 104.859 98.2564C104.865 98.3066 104.87 98.3573 104.874 98.4079C105.065 97.9402 105.207 97.4275 105.3 96.9403C105.512 95.8226 105.304 94.764 104.979 93.8081C104.703 93.8593 104.412 93.9199 104.112 93.9838C103.792 94.0524 103.495 94.069 103.223 94.034ZM110.365 91.7611C110.16 91.7611 110.041 91.7985 109.995 91.8472C109.961 91.8841 109.853 92.0513 109.924 92.6587C109.994 93.2538 110.207 94.0415 110.427 94.8038C110.72 95.8211 111.945 96.9782 113.638 97.1188C114.1 97.1576 114.722 97.1245 115.411 96.8608C116.219 93.6931 116.882 91.2128 117.152 90.3422C117.646 88.7501 118.751 86.9032 120.035 85.5223C121.19 84.281 123.053 82.7887 125.371 82.73C126.01 82.7139 126.353 82.6708 126.532 82.6348C126.501 82.4422 126.496 82.1671 126.678 81.8935C126.945 81.4939 127.488 81.2586 128.555 81.0811C129.959 80.8472 130.894 81.0816 131.489 81.3249C131.484 81.2686 131.478 81.2113 131.472 81.153C131.402 80.4259 131.206 80.059 131.063 79.7915C130.939 79.5585 130.783 79.2688 130.913 78.9208C131.067 78.5052 131.411 78.3731 132.549 77.9356C132.757 77.8556 132.994 77.7643 133.266 77.6577C133.513 77.5612 133.705 77.4774 133.856 77.4054C133.441 77.3396 132.814 77.2856 131.967 77.2856C131.32 77.2856 130.832 76.9097 130.662 76.2806C130.572 75.9473 130.574 75.5548 130.665 75.1235C130.612 75.0179 130.563 74.9133 130.515 74.812C130.43 74.6316 130.313 74.384 130.218 74.2325C130.19 74.2633 130.157 74.3021 130.119 74.3523C129.881 74.6671 129.623 75.0425 129.349 75.4398C128.314 76.941 127.413 78.2495 126.46 78.25C126.399 78.25 126.337 78.2448 126.276 78.2339C125.777 78.1449 125.428 77.7236 125.24 76.9822C125.046 76.2219 124.867 75.8374 124.753 75.65C124.647 75.8407 124.483 76.2323 124.307 77.0129C124.038 78.214 123.406 80.2355 122.198 80.2772C121.532 80.2999 121.027 79.7569 120.701 78.6624C120.493 77.9669 120.332 77.7444 120.271 77.68C120.017 77.7771 119.414 78.4427 119.008 78.8905C118.748 79.1779 117.955 80.0523 117.092 79.8009C116.267 79.5609 115.98 78.5061 115.809 77.5062C115.769 77.2743 115.746 77.0286 115.725 76.79C115.455 77.3893 115.024 78.0057 113.915 78.1998C113.732 78.232 113.546 78.2486 113.355 78.2495C113.545 78.419 113.757 78.5189 113.966 78.6169C114.286 78.767 114.683 78.9535 114.811 79.4085C114.948 79.8923 114.683 80.3889 114.377 80.8543C114.29 80.9859 114.223 81.0924 114.17 81.1786C114.675 81.2965 115.451 81.5564 116.227 82.4644C116.811 83.1495 117.311 83.8738 117.633 84.5049C118.083 85.3873 118.14 86.0123 117.806 86.4142C117.206 87.1376 116.022 86.4582 115.577 86.2021C115.475 86.1439 115.385 86.0937 115.307 86.0516C115.431 86.7153 115.543 87.6858 114.942 88.5768C114.582 89.1089 114.17 89.2448 113.887 89.2652C113.552 89.2893 113.252 89.171 112.991 88.9967C113.194 89.8588 113.543 90.6831 113.831 91.3639C114.318 92.5133 114.67 93.3442 114.196 93.9487C113.795 94.461 113.042 94.407 112.512 94.3218C111.98 94.2361 111.336 94.0709 111.078 93.5473C110.829 93.045 111.095 92.5507 111.271 92.2236C111.31 92.1502 111.368 92.0418 111.402 91.9627C111.342 91.9339 111.235 91.8931 111.056 91.8534C110.761 91.7866 110.534 91.7611 110.365 91.7611ZM97.2872 90.0132C97.6205 90.1448 97.9935 90.3308 98.413 90.5732C99.7296 91.334 100.74 91.9708 101.531 92.5488C101.34 92.0986 101.199 91.5816 101.053 91.0448C100.781 90.0482 100.472 88.9186 99.7925 88.1029C99.2315 87.4297 98.6426 86.5292 98.1232 85.7344C97.8188 85.269 97.4155 84.6521 97.095 84.2275C97.0992 84.4268 97.113 84.6848 97.1442 85.0181C97.3075 86.7778 97.2995 87.9358 97.2915 89.1624C97.2896 89.4384 97.2877 89.7192 97.2872 90.0132ZM56.0174 87.0069C56.0169 87.0069 56.0169 87.0069 56.0174 87.0069V87.0069ZM50.128 75.4667C50.1057 75.7148 50.3708 76.665 51.8919 78.5715C53.2048 80.2171 54.9569 81.9408 56.5788 83.1831C57.6081 83.9713 58.5208 84.4765 59.2925 84.6843C59.4227 84.7193 59.5472 84.7459 59.6665 84.7634C59.9255 84.6573 60.1272 84.5285 60.2271 84.3685C60.264 84.3094 60.3757 84.1295 60.2432 83.6773C59.5075 81.1668 54.6383 76.6086 50.8533 75.5595C50.4082 75.436 50.2028 75.4516 50.128 75.4667ZM78.7067 76.6697C78.5183 76.6697 78.4345 76.7071 78.4198 76.7199C78.3474 76.8435 78.4771 77.6483 79.5418 78.9871C80.4072 80.0755 81.3153 80.8126 81.9729 81.1635C82.0557 80.414 81.7499 78.9937 80.9531 77.9233C80.3339 77.0915 79.5783 76.6697 78.7067 76.6697ZM166.391 61.6858C166.437 61.6858 166.486 61.691 166.537 61.7033C166.894 61.7886 166.986 62.0939 167.053 62.3164C167.155 62.6535 167.393 63.4427 168.239 65.1111C169.857 68.3024 171.519 71.2803 172.917 73.4963C174.72 76.352 175.502 77.0134 175.731 77.1606C177.022 76.3894 185.118 70.1776 194.262 62.9376C205.607 53.9548 211.412 49.0762 212.375 48.0185C212.164 47.6815 211.42 46.7867 208.874 44.4357C206.761 42.4847 203.965 40.0347 201.004 37.4403C197.281 34.1785 193.432 30.8053 190.362 27.9236C185.674 23.5207 184.803 22.1189 184.569 21.3894C184.1 19.9303 184.505 17.1967 185.625 14.2553C186.853 11.0323 188.714 8.17751 190.733 6.42348C193.402 4.10275 196.336 3.61228 199.214 5.00557C203.475 7.06686 206.758 10.7151 208.708 15.5549C210.459 19.9004 211.054 25.0797 210.384 30.1392C209.816 34.4322 209.176 36.8121 208.752 38.3867C208.241 40.2833 208.175 40.5271 208.88 41.3773C208.94 41.4493 209.001 41.5232 209.063 41.5984C209.558 42.1978 210.118 42.8772 210.66 43.3624C211.362 43.9916 211.645 43.9428 211.694 43.9263C211.755 43.9064 212.287 43.6607 212.426 41.1539C212.484 40.1067 212.661 38.8048 212.866 37.2974C213.826 30.2287 215.433 18.3978 207.641 9.18686C202.199 2.75207 197.525 1.7219 194.563 1.99175C191.342 2.28433 188.472 4.23673 186.687 7.3476C183.148 13.5163 182.974 18.0674 183.205 19.3006C183.304 19.8318 182.964 20.0373 182.857 20.0875C182.363 20.3204 181.955 19.8706 181.561 19.4355C181.234 19.0753 180.808 18.5644 180.314 17.9727C179.248 16.6949 177.787 14.9451 176.463 13.6972C175.767 13.0424 175.173 12.5841 174.694 12.3356C174.514 12.2414 174.071 12.0378 173.873 12.177C172.219 13.3383 166.255 17.6077 160.741 21.8443C157.368 24.4359 154.679 26.615 152.75 28.3222C151.63 29.314 150.76 30.152 150.163 30.8134C149.39 31.6717 149.278 32.0159 149.262 32.0883C149.745 33.9512 156.096 44.6766 159.482 49.9534C157.867 46.2333 155.812 41.7267 153.826 37.6089C153.223 36.3586 152.823 35.4297 152.603 34.7679C152.445 34.2963 152.153 33.4186 152.748 33.037C153.303 32.681 153.944 33.1871 154.501 33.6894C155.019 34.1562 155.709 34.8734 156.61 35.8818C158.242 37.7093 160.31 40.1952 163.052 43.5078C166.44 47.5996 168.167 48.5218 169.846 48.3736C170.035 48.2197 170.222 48.0645 170.404 47.9078C171.511 46.9614 172.429 46.0354 173.131 45.1681C172.636 45.6661 172.055 46.1229 171.344 46.4932C170.885 46.7318 169.667 47.3662 169.011 46.6622C168.562 46.1807 168.636 45.3603 169.251 44.002C169.561 43.3184 170.003 42.506 170.566 41.5875C170.65 41.4498 170.702 41.3541 170.734 41.2888C170.404 41.0313 169.803 40.5507 169.454 39.0997C169.285 38.3976 169.481 37.7618 169.992 37.3556C170.764 36.7425 172.113 36.7473 173.35 37.367C174.107 37.7462 174.742 38.3204 175.187 39.0277C175.363 39.3075 175.508 39.6039 175.621 39.9159C176.199 39.3435 176.895 38.8682 177.807 38.5856C179.113 38.1808 179.88 38.5647 180.294 38.9581C180.92 39.5532 181.13 40.5526 180.855 41.6311C180.585 42.6911 179.765 43.9656 178.277 44.3623C178.25 44.3694 178.225 44.3765 178.203 44.3836C178.381 44.5876 178.724 44.8788 178.931 45.0544C179.648 45.6637 180.39 46.2934 180.12 47.0367C179.878 47.7013 178.988 47.966 176.945 47.9807C174.991 47.9944 173.601 48.4849 172.376 48.9171C171.663 49.1685 170.997 49.4033 170.316 49.5141C167.983 51.3704 165.359 52.9332 163.415 53.6021C163.051 53.7276 162.718 53.8189 162.414 53.8772C163.149 55.707 163.626 57.0453 163.702 57.5779C163.722 57.7185 163.733 57.8151 163.736 57.8899C163.757 58.379 163.422 58.53 163.319 58.5645C163.18 58.6114 162.827 58.6725 162.55 58.2308C162.503 58.1564 162.45 58.0603 162.382 57.9387C161.924 57.1126 160.707 54.9187 158.571 54.7478C155.032 54.4647 135.713 52.2254 131.845 51.4234C131 51.2482 130.209 51.1327 129.47 51.0778C129.014 51.9939 128.094 52.5663 127.131 53.1656C126.588 53.5032 126.019 53.8573 125.487 54.2995C125.356 54.9746 125.289 55.6085 125.313 56.1685C125.331 56.6031 125.385 56.8294 125.424 56.9402C125.526 56.8858 125.716 56.758 126.028 56.4573C126.403 56.0971 126.825 55.6161 127.272 55.1071C127.709 54.6096 128.162 54.0949 128.612 53.6452C129.379 52.8782 131.059 52.909 134.231 53.7484C136.851 54.4415 140.169 55.5919 144.012 56.9241C148.243 58.3908 153.039 60.0535 157.689 61.353C163.924 63.0952 165.498 62.3396 165.885 61.9344C165.95 61.8676 166.124 61.6858 166.391 61.6858ZM112.769 77.0035C112.999 77.0513 113.216 77.0712 113.422 77.0636C113.356 76.985 113.312 76.9112 113.288 76.87C113.045 76.4628 112.882 76.0334 112.748 75.6031C112.693 76.0794 112.691 76.548 112.769 77.0035ZM108.814 71.2793C108.506 71.2793 108.211 71.3517 108.063 71.5553C107.832 71.8739 108.008 72.4648 108.134 72.7881C108.761 74.403 109.989 75.756 111.53 76.5419C111.479 75.4951 111.712 74.4536 112.028 73.4282C111.483 72.3843 110.458 71.5908 109.308 71.3352C109.155 71.3011 108.983 71.2793 108.814 71.2793ZM113.294 73.3534C113.463 73.7733 113.582 74.2017 113.696 74.6184C113.809 75.0293 113.919 75.4246 114.069 75.7877C114.517 74.7121 115.028 73.2819 115.126 71.9331C115.148 71.6405 115.16 71.3451 115.174 71.0317C115.216 70.0422 115.261 69.0187 115.583 68.0487C115.976 66.8641 116.728 66.519 117.391 66.2146C117.714 66.0664 118.047 65.913 118.372 65.6541C118.929 65.21 119.025 64.6196 119.009 63.6856C118.981 62.137 119.893 60.9856 120.774 59.8717C121.443 59.0266 122.075 58.2279 122.301 57.2863C122.704 55.6056 123.507 54.4912 124.412 53.6637C124.549 53.0468 124.729 52.411 124.935 51.7737C124.645 51.9172 124.371 52.0815 124.112 52.2671C123.364 52.8053 122.9 53.5628 122.41 54.3653C122.282 54.575 122.149 54.7923 122.009 55.0082C121.657 55.5545 121.258 56.1113 120.872 56.6491C120.327 57.4094 119.763 58.1957 119.304 58.9859C119.006 59.4996 118.804 60.1231 118.589 60.7835C118.26 61.7985 117.92 62.8476 117.177 63.6212C116.963 63.8437 116.726 64.0686 116.497 64.2859C115.936 64.8185 115.356 65.3691 114.999 65.9788C114.603 66.6544 114.576 67.3494 114.544 68.1542C114.529 68.5173 114.514 68.8923 114.464 69.2867C114.33 70.341 113.957 71.418 113.597 72.4591C113.495 72.7569 113.392 73.0546 113.294 73.3534ZM131.936 74.981C131.975 75.0421 132.016 75.097 132.056 75.1434C132.162 75.2646 132.189 75.2551 132.242 75.2362C133.883 74.6539 139.34 72.5324 140.662 69.6749C140.986 68.9747 141.004 68.6674 140.996 68.5666C140.878 68.5462 140.471 68.5401 139.391 68.9941C138.497 69.37 137.327 69.9807 135.815 70.8613C134.031 71.9004 133.036 73.0594 132.516 73.8486C132.243 74.2628 132.054 74.6477 131.936 74.981ZM84.464 68.1708C84.4536 68.2404 84.4484 68.3805 84.4957 68.6291C84.7362 69.8922 85.1964 70.8613 85.8265 71.4317C86.3577 71.9127 86.9987 72.1154 87.7311 72.0339C87.7903 72.0273 87.8476 72.0169 87.903 72.0022C87.8963 71.9672 87.8888 71.9322 87.8812 71.8957C87.7136 71.1269 87.0674 70.1289 86.1949 69.2904C85.3763 68.5046 84.714 68.1935 84.464 68.1708ZM81.7764 51.599C81.6746 51.599 81.6173 51.6199 81.5951 51.6407C81.4516 51.7752 81.2954 52.6354 82.282 54.9694C83.0669 56.8271 84.0441 57.9126 84.7258 58.4964C85.5051 59.1634 86.3052 59.5175 86.8666 59.4423C87.1625 59.403 87.5138 59.2908 87.8689 59.1663C87.8689 59.1426 87.8689 59.1184 87.8684 59.0938C87.8253 56.9473 85.1027 53.0705 82.8459 51.9418C82.3005 51.6696 81.9634 51.599 81.7764 51.599ZM153.822 34.6694C154.008 35.1698 154.332 35.933 154.893 37.0947C157.37 42.2305 160.186 48.4659 161.956 52.7499C162.214 52.7201 162.564 52.6439 163.031 52.4829C164.528 51.9678 166.535 50.8302 168.444 49.4488C168.312 49.4161 168.177 49.3768 168.04 49.3304C166.402 48.7741 164.583 47.2114 162.142 44.2624C159.697 41.3096 157.702 38.9094 156.131 37.125C155.002 35.843 154.281 35.0993 153.822 34.6694ZM126.364 51.2691C126.214 51.6843 126.073 52.1018 125.946 52.5147C126.137 52.392 126.325 52.2751 126.508 52.1615C127.129 51.7756 127.672 51.4376 128.046 51.0504C127.444 51.074 126.884 51.1469 126.364 51.2691ZM128.679 45.9284C128.674 45.9388 128.669 45.9492 128.664 45.9591C128.216 46.8913 127.51 48.3613 126.861 49.9705C127.409 49.8905 127.989 49.8531 128.603 49.8578C128.84 48.4612 128.808 46.8454 128.679 45.9284ZM175.916 41.365C175.927 41.5445 175.93 41.7277 175.924 41.9137C175.866 43.8813 174.075 46.0609 172.462 47.6327C173.626 47.2322 175.052 46.8099 176.938 46.7962C178.104 46.7876 178.644 46.6901 178.886 46.6177C178.707 46.4151 178.37 46.1291 178.166 45.9558C177.454 45.3513 176.781 44.7798 176.94 44.0744C177.032 43.6645 177.38 43.3761 177.973 43.218C178.967 42.9529 179.521 42.0728 179.709 41.3376C179.872 40.6999 179.781 40.1024 179.479 39.815C179.146 39.4978 178.577 39.5854 178.158 39.7152C177.174 40.0215 176.504 40.6166 175.916 41.365ZM171.482 38.0861C171.155 38.0861 170.887 38.1581 170.73 38.2826C170.666 38.3332 170.516 38.4521 170.605 38.8227C170.862 39.8861 171.215 40.1616 171.473 40.3628C171.658 40.5072 171.938 40.7254 171.965 41.1345C171.987 41.4626 171.832 41.7878 171.576 42.2054C171.094 42.9927 170.704 43.6962 170.42 44.2965C170.001 45.1799 169.918 45.6098 169.908 45.793C170.044 45.7712 170.315 45.6945 170.798 45.4426C172.319 44.6511 173.154 43.3615 173.962 42.1149C174.197 41.7509 174.435 41.384 174.69 41.0289C174.437 39.4145 173.337 38.6836 172.821 38.4251C172.347 38.1884 171.872 38.0861 171.482 38.0861ZM195.992 5.41177C194.468 5.41177 192.969 6.04758 191.509 7.31636C189.633 8.94683 187.892 11.6293 186.731 14.6762C185.733 17.2966 185.317 19.8484 185.696 21.0267C185.883 21.6086 186.985 23.1278 191.173 27.0605C194.227 29.9281 198.069 33.2946 201.784 36.5498C203.89 38.3948 205.918 40.172 207.677 41.7495C206.917 40.6483 207.127 39.8666 207.609 38.0785C208.024 36.5337 208.653 34.1993 209.211 29.9834C210.377 21.1768 207.578 10.3671 198.699 6.0703C197.791 5.63096 196.888 5.41177 195.992 5.41177Z" fill="#94D96B"></path></svg>